<svg xmlns="http://www.w3.org/2000/svg" xmlns:xlink="http://www.w3.org/1999/xlink" viewBox="0 0 2109.01 544.41"><defs><style>.cls-1{fill:url(#radial-gradient);}.cls-2{fill:url(#linear-gradient);}.cls-3{fill:#fff;}.cls-4{font-size:500px;fill:#29abe2;font-family:TwCenMT-Regular, Tw Cen MT;}</style><radialGradient id="radial-gradient" cx="607.67" cy="373.95" r="114.57" gradientTransform="matrix(2, 0, 0, -2, -978.83, 996.09)" gradientUnits="userSpaceOnUse"><stop offset="0" stop-color="#afeeff"/><stop offset="0.19" stop-color="#bbf1ff"/><stop offset="0.7" stop-color="#d7f8ff"/><stop offset="1" stop-color="#e1faff"/></radialGradient><linearGradient id="linear-gradient" x1="605.79" y1="469.68" x2="605.79" y2="281.97" gradientTransform="matrix(2, 0, 0, -2, -978.83, 996.09)" gradientUnits="userSpaceOnUse"><stop offset="0.01" stop-color="#0575e6"/><stop offset="1" stop-color="#00f260"/></linearGradient></defs><title>logo</title><g id="Layer_2" data-name="Layer 2"><g id="Layer_1-2" data-name="Layer 1"><path class="cls-1" d="M435.49,161.85h11.26A26.35,26.35,0,0,0,472.45,130c-2.57-12.27-14-20.7-26.56-20.7H390.44a15,15,0,1,1,0-30h25.42c12.53,0,24-8.43,26.55-20.7A26.34,26.34,0,0,0,416.72,26.7H56.31a26.28,26.28,0,0,0,0,52.56H67.57a15,15,0,1,1,0,30H27.14c-12.54,0-24,8.43-26.56,20.7a26.36,26.36,0,0,0,25.7,31.86H127.64V252H27.14c-12.54,0-24,8.43-26.56,20.7a26.36,26.36,0,0,0,25.7,31.86H30a15,15,0,0,1,0,30H26.28A26.35,26.35,0,0,0,.58,366.4c2.57,12.28,14,20.71,26.56,20.71H67.57a15,15,0,1,1,0,30H57.18c-12.54,0-24,8.42-26.56,20.7A26.34,26.34,0,0,0,56.31,469.7h352.9a26.28,26.28,0,1,0,0-52.56h-3.75a15,15,0,1,1,0-30h32.92c12.54,0,24-8.43,26.56-20.71a26.35,26.35,0,0,0-25.7-31.85H345.39V244.44h93c12.54,0,24-8.42,26.56-20.7a26.36,26.36,0,0,0-25.7-31.86h-3.75a15,15,0,1,1,0-30Z"/><path class="cls-2" d="M420.47,244.44c0,103.66-84.05,187.72-187.71,187.72S45.05,348.1,45.05,244.44,129.11,56.73,232.76,56.73,420.47,140.79,420.47,244.44Z"/><path class="cls-3" d="M313.06,174.86,199,289.09l-39.3-39.19a18.76,18.76,0,0,0-26.53,0h0a18.77,18.77,0,0,0,0,26.56l52.58,52.45a18.76,18.76,0,0,0,26.53,0L339.62,201.4a18.77,18.77,0,0,0,0-26.54h0A18.78,18.78,0,0,0,313.06,174.86Z"/><text class="cls-4" transform="translate(509.64 405.49)">Statyum</text></g></g></svg>